<?xml version="1.0" standalone="no"?>
<!DOCTYPE svg PUBLIC "-//W3C//DTD SVG 20010904//EN"
 "http://www.w3.org/TR/2001/REC-SVG-20010904/DTD/svg10.dtd">
<svg version="1.0" xmlns="http://www.w3.org/2000/svg"
 width="512.000000pt" height="512.000000pt" viewBox="0 0 512.000000 512.000000"
 preserveAspectRatio="xMidYMid meet">
<metadata>
Created by potrace 1.11, written by Peter Selinger 2001-2013
</metadata>
<g transform="translate(0.000000,512.000000) scale(0.100000,-0.100000)"
fill="#000000" stroke="none">
<path d="M3216 4982 c-3 -4 4 -9 15 -9 23 -2 25 3 4 10 -8 4 -16 3 -19 -1z"/>
<path d="M3515 4979 c-3 -4 2 -6 10 -5 21 3 28 13 10 13 -9 0 -18 -4 -20 -8z"/>
<path d="M3590 4979 c0 -5 5 -7 10 -4 6 3 10 8 10 11 0 2 -4 4 -10 4 -5 0 -10
-5 -10 -11z"/>
<path d="M3430 4976 c0 -2 8 -10 18 -17 15 -13 16 -12 3 4 -13 16 -21 21 -21
13z"/>
<path d="M3135 4940 c3 -5 8 -10 11 -10 2 0 4 5 4 10 0 6 -5 10 -11 10 -5 0
-7 -4 -4 -10z"/>
<path d="M3173 4935 c0 -8 4 -12 9 -9 5 3 6 10 3 15 -9 13 -12 11 -12 -6z"/>
<path d="M3396 4942 c-2 -4 -1 -14 4 -22 7 -11 9 -9 7 8 -1 24 -3 26 -11 14z"/>
<path d="M3473 4930 c-1 -11 2 -20 7 -20 4 0 7 7 6 15 -3 23 -12 26 -13 5z"/>
<path d="M3333 4927 c0 -7 9 -14 20 -14 11 -1 18 -1 16 0 -2 2 -11 8 -20 15
-12 9 -16 9 -16 -1z"/>
<path d="M2350 4904 c-129 -18 -158 -23 -219 -40 -278 -78 -512 -215 -714
-419 -224 -226 -364 -497 -432 -835 -7 -38 -18 -162 -20 -225 0 -39 -4 -75 -8
-81 -3 -6 -3 -14 1 -18 4 -4 8 -22 8 -39 4 -87 21 -193 45 -287 11 -41 18 -82
16 -92 -3 -9 -1 -16 4 -15 11 2 50 -99 41 -107 -3 -3 0 -6 6 -6 7 0 12 -5 12
-11 0 -10 48 -126 72 -176 6 -11 7 -27 3 -34 -5 -7 -4 -10 2 -6 13 8 26 -20
16 -35 -3 -6 -1 -8 5 -4 6 3 14 -4 18 -16 3 -13 21 -53 39 -90 18 -36 31 -69
27 -72 -3 -3 -1 -6 4 -6 6 0 16 -17 23 -37 8 -21 17 -40 20 -43 3 -3 33 -59
67 -125 63 -124 74 -143 182 -335 214 -381 574 -948 781 -1230 167 -229 176
-239 193 -240 6 0 68 75 98 120 8 12 29 41 46 64 233 313 651 970 858 1349 20
37 46 84 58 105 68 122 278 552 319 656 11 28 27 65 34 81 105 228 147 411
151 655 4 249 -35 464 -119 650 -45 100 -51 115 -49 123 1 4 -3 7 -9 7 -5 0
-7 5 -4 10 3 6 1 10 -5 10 -6 0 -16 12 -22 28 -7 15 -18 35 -26 45 -9 9 -12
17 -9 17 4 0 -2 10 -13 23 -10 12 -20 27 -21 32 -1 6 -9 15 -18 22 -9 7 -12
13 -7 13 4 0 -2 9 -15 20 -14 11 -18 19 -11 20 7 0 11 4 7 10 -3 5 -11 8 -18
6 -7 -1 -9 -1 -4 1 4 3 7 9 7 14 0 6 -4 8 -9 5 -4 -3 -17 1 -27 9 -11 9 -13
13 -4 10 10 -4 15 2 16 19 2 24 1 24 -21 10 -18 -12 -25 -12 -31 -3 -4 7 -3 9
3 6 6 -4 22 2 34 14 17 15 19 19 7 15 -50 -17 -52 -17 -32 -4 18 10 19 15 9
25 -7 6 -17 9 -21 5 -5 -4 -2 1 5 11 9 12 10 17 2 17 -6 0 -14 -7 -17 -15 -4
-8 -11 -15 -17 -15 -5 0 -3 8 6 18 10 10 17 25 17 33 0 9 -8 5 -21 -11 -15
-19 -19 -20 -15 -6 5 15 2 17 -15 13 -25 -7 -49 1 -49 16 0 7 4 7 12 -1 17
-17 33 -15 18 3 -8 9 -8 15 -2 15 6 0 12 -4 14 -9 5 -15 41 -17 46 -2 3 9 0
11 -7 6 -19 -11 -52 25 -45 48 5 15 3 17 -7 11 -20 -12 -39 -14 -39 -3 0 6 7
9 16 7 10 -2 19 2 21 8 2 6 -7 11 -19 11 -41 1 -46 3 -50 20 -2 9 -13 17 -26
18 -12 1 -21 -3 -19 -9 2 -6 12 -10 21 -10 9 1 16 -2 16 -7 0 -12 -27 -11 -35
1 -9 14 -45 13 -45 -2 0 -6 -3 -8 -6 -5 -4 4 0 17 9 31 15 22 15 25 0 38 -14
11 -16 11 -11 -3 3 -9 2 -22 -3 -30 -8 -12 -10 -12 -18 1 -6 9 -6 19 1 27 13
16 -2 16 -23 0 -9 -7 -14 -19 -12 -27 2 -8 -4 -3 -14 13 -17 25 -42 40 -27 15
4 -7 3 -8 -5 -4 -6 4 -9 11 -6 16 3 5 1 11 -5 15 -5 3 -10 0 -10 -7 0 -8 -3
-9 -8 -3 -4 6 -13 11 -20 13 -7 1 -28 11 -47 21 l-35 19 25 16 c14 9 25 12 25
7 0 -5 -5 -13 -10 -16 -16 -10 -1 -25 17 -18 11 5 14 3 8 -6 -6 -10 -3 -11 12
-2 11 6 23 7 27 4 3 -3 6 -1 6 5 0 7 5 12 11 12 5 0 8 -4 5 -8 -3 -5 1 -9 9
-9 8 0 15 4 15 9 0 4 -5 8 -11 8 -5 0 -7 5 -3 11 9 16 27 -17 19 -34 -4 -6 1
-3 10 8 14 18 14 21 0 31 -13 10 -13 13 -2 17 9 3 19 -4 26 -19 14 -31 14 -37
-1 -28 -6 4 -8 3 -5 -3 8 -12 -20 -26 -33 -18 -5 3 -11 1 -15 -5 -3 -5 -1 -11
4 -11 6 -1 17 -2 24 -3 6 -1 15 3 19 9 5 6 8 4 8 -4 0 -11 4 -10 16 5 8 10 13
12 9 4 -6 -13 -5 -13 7 0 14 17 32 20 44 8 4 -5 -3 -8 -15 -8 -13 0 -20 -4
-16 -11 4 -6 10 -8 13 -5 3 3 11 1 19 -6 11 -9 12 -7 6 7 -5 15 -3 17 13 10
10 -4 27 -8 36 -9 9 0 14 -5 11 -10 -4 -5 -1 -6 7 -1 9 6 11 4 5 -6 -8 -12 -6
-12 8 0 11 9 17 10 17 2 0 -6 5 -11 11 -11 8 0 7 5 -1 15 -7 9 -10 18 -6 22 3
3 6 1 6 -7 0 -10 3 -10 15 0 10 9 15 9 15 1 0 -6 -5 -11 -11 -11 -5 0 -8 -4
-4 -9 3 -5 1 -13 -5 -16 -8 -5 -7 -11 1 -21 6 -7 16 -11 22 -7 6 4 7 1 2 -7
-6 -9 -4 -11 5 -5 9 6 11 4 5 -5 -6 -9 -4 -11 5 -5 9 6 11 4 5 -5 -5 -8 -4
-11 2 -7 6 4 19 0 29 -8 16 -13 17 -14 2 -9 -10 3 -18 2 -18 -4 0 -5 8 -9 18
-9 34 0 43 -3 37 -13 -3 -5 6 -15 20 -22 18 -8 22 -14 13 -20 -11 -6 -10 -8 0
-8 7 0 10 -5 6 -12 -5 -7 -3 -8 6 -3 9 6 11 4 5 -5 -6 -9 -4 -11 6 -5 11 7 11
5 -1 -10 -13 -17 -13 -18 0 -10 13 8 13 7 0 -11 -14 -18 -14 -18 5 -4 19 14
19 14 6 -5 -14 -19 -14 -19 5 -2 16 15 17 19 4 27 -8 5 -13 10 -10 11 3 0 13
2 23 4 21 4 19 -23 -3 -45 -13 -12 -13 -13 -1 -5 12 8 13 7 6 -5 -13 -20 -13
-31 -3 -52 5 -10 4 -19 -2 -23 -5 -3 -10 -12 -10 -18 1 -7 10 -1 21 12 11 13
22 21 26 18 3 -4 1 -13 -6 -21 -9 -11 -9 -15 1 -19 10 -4 9 -6 -1 -6 -11 -1
-10 -5 5 -17 18 -14 18 -15 -3 -4 -16 7 -23 7 -23 0 0 -5 7 -10 15 -10 17 0
20 -16 5 -25 -5 -3 -10 -1 -10 5 0 6 -5 8 -11 4 -8 -4 -7 -9 2 -15 7 -4 18 -4
25 1 6 6 14 7 17 3 9 -9 9 -23 0 -22 -26 4 -34 -1 -21 -15 10 -10 15 -11 21
-2 6 7 7 4 3 -7 -3 -11 0 -20 10 -24 13 -5 13 -7 2 -14 -8 -5 1 -7 24 -6 21 2
41 7 45 11 5 4 -6 5 -22 1 -27 -6 -28 -5 -12 8 21 17 22 28 2 21 -8 -4 -15 -1
-15 5 0 11 13 15 40 11 11 -1 12 1 4 10 -18 19 -57 -6 -49 -31 5 -13 2 -17 -7
-14 -24 9 -15 44 14 56 31 13 58 39 39 39 -6 0 -11 -4 -11 -9 0 -14 -37 -20
-49 -8 -6 6 -11 18 -11 26 0 12 3 11 13 -3 12 -17 15 -17 29 -3 9 9 19 13 22
9 4 -3 4 2 0 12 -6 16 -8 17 -16 2 -6 -11 -14 -14 -26 -7 -9 4 -22 7 -27 5 -6
-3 -11 5 -12 17 -1 15 1 18 11 10 9 -7 16 -7 26 2 10 10 12 9 7 -5 -4 -10 -2
-18 3 -18 6 0 10 9 10 20 0 16 -5 19 -26 16 -17 -3 -24 -1 -21 7 2 7 12 11 22
9 10 -2 14 1 10 7 -3 6 -1 11 6 11 7 0 10 3 7 6 -4 3 -15 1 -27 -5 -13 -7 -22
-8 -26 -1 -3 5 -2 10 3 10 5 0 18 8 30 18 17 15 19 21 9 31 -10 11 -7 12 13 7
24 -6 24 -6 -3 9 -15 9 -32 13 -38 10 -11 -7 -39 12 -39 27 0 5 6 6 13 1 16
-10 57 -11 51 -1 -3 5 -11 8 -17 7 -27 -3 -38 2 -31 14 6 9 3 8 -9 -1 -14 -12
-16 -11 -14 7 1 13 6 20 14 17 7 -3 13 -1 13 5 0 6 -8 9 -17 7 -9 -2 -16 -7
-16 -13 0 -11 -27 -34 -41 -35 -5 0 -1 10 10 22 14 17 15 19 2 10 -15 -12 -17
-11 -15 7 1 14 6 19 17 16 8 -3 28 4 43 14 25 16 26 19 11 25 -10 4 -15 4 -11
0 4 -4 -1 -13 -11 -20 -29 -22 -34 -15 -12 16 12 17 17 30 12 30 -5 0 -14 -12
-20 -26 -7 -14 -17 -22 -22 -19 -6 4 -4 12 5 22 9 8 13 18 10 22 -4 3 -11 -2
-16 -12 -6 -9 -14 -17 -18 -17 -13 0 -8 29 6 34 7 3 13 14 13 25 0 14 5 18 23
15 20 -4 20 -4 2 5 -25 11 -35 5 -35 -20 0 -11 -4 -17 -10 -14 -5 3 -10 1 -10
-5 0 -6 -4 -9 -10 -5 -5 3 -7 12 -3 20 3 8 0 15 -7 15 -6 0 -8 6 -4 13 6 10 4
10 -7 0 -22 -21 -33 -15 -14 8 l19 20 19 -23 c18 -22 18 -22 8 -1 -14 27 -28
36 -36 23 -4 -6 -11 -8 -16 -4 -5 3 -17 0 -26 -8 -14 -11 -16 -11 -11 4 4 10
1 19 -8 22 -21 8 -18 37 4 29 14 -5 15 -3 5 8 -10 10 -16 10 -24 2 -9 -9 -8
-21 5 -46 20 -43 20 -44 1 -44 -8 0 -13 8 -12 20 3 25 -39 31 -53 8 -7 -12 -9
-12 -10 -2 0 8 -6 11 -16 7 -14 -5 -15 -4 -4 8 6 9 15 15 18 14 4 0 17 0 30 1
27 1 29 16 2 19 -11 1 -29 3 -40 4 -12 1 -18 8 -15 15 3 10 0 11 -14 4 -12 -7
-22 -6 -30 2 -10 9 -11 8 -5 -6 5 -13 2 -16 -10 -11 -9 3 -13 10 -10 15 3 5 1
15 -3 23 -7 13 -11 12 -28 0 -17 -13 -18 -16 -5 -25 12 -9 12 -10 -3 -5 -10 3
-21 6 -23 6 -3 0 -2 5 1 10 6 10 -9 15 -30 10 -40 -8 -57 -5 -70 13 -8 11 -12
24 -9 28 2 4 -5 13 -17 19 -17 10 -20 9 -14 -1 6 -9 3 -11 -9 -6 -10 4 -15 3
-11 -4 4 -5 16 -7 27 -3 12 4 18 2 14 -4 -3 -5 4 -21 15 -36 11 -14 16 -26 10
-26 -5 0 -16 9 -24 20 -8 11 -17 17 -21 12 -4 -4 -18 -7 -29 -7 -13 0 -22 -6
-22 -15 0 -15 -13 -30 -27 -30 -5 0 -8 5 -8 11 0 5 3 8 8 6 4 -3 8 7 8 21 2
26 1 26 -9 5 -5 -13 -18 -23 -28 -23 -10 0 -28 10 -40 23 -12 12 -18 16 -14 8
6 -11 4 -13 -9 -8 -10 4 -22 7 -27 7 -6 0 -7 4 -4 10 3 6 -1 7 -10 4 -8 -4
-21 -1 -29 5 -7 6 -16 8 -19 4 -4 -3 -7 -2 -7 3 0 5 -8 10 -17 11 -19 1 -57 9
-113 23 -135 33 -383 45 -530 24z m900 -104 c0 -5 -4 -10 -10 -10 -5 0 -10 5
-10 10 0 6 5 10 10 10 6 0 10 -4 10 -10z m52 -6 c14 -14 20 -14 33 -4 9 7 18
10 21 7 9 -9 -38 -30 -70 -32 -25 -2 -27 0 -13 10 12 9 14 14 5 23 -18 18 3
14 24 -4z m168 6 c0 -5 -4 -10 -10 -10 -5 0 -10 5 -10 10 0 6 5 10 10 10 6 0
10 -4 10 -10z m25 -31 c6 -1 17 0 25 2 10 3 14 -3 13 -16 -1 -20 -1 -20 13 -1
12 17 16 18 27 6 6 -8 8 -11 3 -7 -5 4 -18 -1 -28 -10 -19 -17 -27 -15 -81 20
-1 1 -16 -7 -32 -17 -23 -15 -27 -16 -17 -3 8 9 11 20 8 25 -4 7 9 8 69 1z
m197 -62 c-6 -7 -7 -18 -3 -26 6 -9 10 -10 15 -2 4 6 12 8 19 4 17 -10 -25
-22 -45 -12 -10 6 -19 5 -23 -1 -4 -6 -3 -10 2 -9 19 3 34 -2 28 -10 -3 -5 0
-13 6 -17 8 -4 9 -3 5 4 -10 16 6 15 24 0 12 -11 12 -10 1 5 -15 19 -2 24 17
5 10 -10 7 -15 -10 -25 -13 -8 -16 -13 -8 -12 40 4 50 -1 46 -23 -1 -13 -6
-22 -9 -20 -4 1 -12 2 -18 2 -8 0 -7 6 2 17 8 9 9 14 3 10 -11 -6 -34 8 -87
53 -10 8 -22 15 -27 15 -6 0 -10 5 -10 10 0 6 9 10 21 10 11 0 25 8 30 18 6 9
15 17 21 17 7 0 7 -4 0 -13z m-192 -86 c0 -4 -6 -8 -13 -8 -8 0 -14 6 -14 13
0 7 6 10 14 7 7 -3 13 -8 13 -12z m45 -34 c4 4 5 2 0 -6 -7 -12 -10 -11 -20 2
-7 9 -15 14 -19 10 -4 -4 -4 1 0 11 7 17 8 17 19 -3 6 -12 15 -18 20 -14z m5
23 c0 -5 -2 -10 -4 -10 -3 0 -8 5 -11 10 -3 6 -1 10 4 10 6 0 11 -4 11 -10z
m17 -22 c-3 -8 -6 -5 -6 6 -1 11 2 17 5 13 3 -3 4 -12 1 -19z m43 -18 c0 -5
-7 -6 -17 -3 -11 4 -14 3 -9 -5 4 -7 2 -12 -3 -12 -12 0 -14 13 -4 23 10 10
33 8 33 -3z m210 -53 c0 -7 -4 -6 -10 3 -8 12 -10 12 -10 1 0 -8 -3 -12 -6 -8
-9 9 6 28 17 22 5 -4 9 -12 9 -18z m30 -31 c0 -2 3 -12 7 -22 4 -11 3 -15 -5
-10 -6 3 -13 2 -16 -3 -8 -13 22 -7 36 7 9 9 9 12 -1 12 -7 0 -9 5 -6 10 10
16 21 11 22 -10 1 -12 -9 -27 -23 -36 -17 -11 -21 -20 -15 -28 7 -8 4 -12 -9
-12 -10 0 -16 4 -14 8 3 4 1 8 -5 8 -11 0 -9 18 7 46 6 12 8 24 5 28 -3 3 -1
6 5 6 7 0 12 -2 12 -4z m-160 -36 c-8 -5 -19 -10 -25 -10 -5 0 -3 5 5 10 8 5
20 10 25 10 6 0 3 -5 -5 -10z m191 -167 c13 -16 12 -17 -3 -4 -10 7 -18 15
-18 17 0 8 8 3 21 -13z"/>
<path d="M3826 4428 c3 -5 10 -6 15 -3 13 9 11 12 -6 12 -8 0 -12 -4 -9 -9z"/>
<path d="M3150 4916 c0 -2 8 -10 18 -17 15 -13 16 -12 3 4 -13 16 -21 21 -21
13z"/>
<path d="M3194 4906 c1 -8 5 -18 8 -22 4 -3 5 1 4 10 -1 8 -5 18 -8 22 -4 3
-5 -1 -4 -10z"/>
<path d="M3055 4900 c3 -5 8 -10 11 -10 2 0 4 5 4 10 0 6 -5 10 -11 10 -5 0
-7 -4 -4 -10z"/>
<path d="M3505 4899 c-3 -4 2 -6 10 -5 21 3 28 13 10 13 -9 0 -18 -4 -20 -8z"/>
<path d="M3348 4893 c7 -3 16 -2 19 1 4 3 -2 6 -13 5 -11 0 -14 -3 -6 -6z"/>
<path d="M3575 4890 c-4 -6 -11 -7 -17 -4 -7 4 -8 2 -4 -5 6 -9 11 -9 22 0 14
11 18 19 10 19 -3 0 -8 -5 -11 -10z"/>
<path d="M3639 4893 c-5 -26 -3 -73 3 -73 3 0 6 18 5 40 -2 37 -5 50 -8 33z"/>
<path d="M3290 4886 c0 -2 7 -7 16 -10 8 -3 12 -2 9 4 -6 10 -25 14 -25 6z"/>
<path d="M3379 4883 c-1 -5 -1 -11 0 -15 0 -5 -6 -8 -14 -8 -8 0 -15 -5 -15
-10 0 -17 33 5 36 24 1 9 0 16 -2 16 -2 0 -5 -3 -5 -7z"/>
<path d="M3410 4880 c-8 -5 -10 -10 -5 -10 6 0 17 5 25 10 8 5 11 10 5 10 -5
0 -17 -5 -25 -10z"/>
<path d="M3457 4879 c7 -7 15 -10 18 -7 3 3 -2 9 -12 12 -14 6 -15 5 -6 -5z"/>
<path d="M3215 4871 c-3 -5 0 -13 6 -17 7 -4 9 -3 5 4 -3 5 0 13 6 15 9 4 10
6 1 6 -6 1 -14 -3 -18 -8z"/>
<path d="M3523 4873 c9 -2 14 -9 11 -15 -4 -7 -2 -8 5 -4 15 10 4 26 -17 25
-15 -1 -15 -2 1 -6z"/>
<path d="M3430 4860 c0 -5 5 -10 10 -10 6 0 10 5 10 10 0 6 -4 10 -10 10 -5 0
-10 -4 -10 -10z"/>
<path d="M3497 4859 c7 -7 15 -10 18 -7 3 3 -2 9 -12 12 -14 6 -15 5 -6 -5z"/>
<path d="M3590 4866 c0 -2 7 -7 16 -10 8 -3 12 -2 9 4 -6 10 -25 14 -25 6z"/>
<path d="M3666 4858 c3 -4 9 -8 15 -8 5 0 9 4 9 8 0 5 -7 9 -15 9 -8 0 -12 -4
-9 -9z"/>
<path d="M3770 4860 c0 -5 5 -10 11 -10 5 0 7 5 4 10 -3 6 -8 10 -11 10 -2 0
-4 -4 -4 -10z"/>
<path d="M3095 4849 c-4 -6 -5 -12 -2 -15 2 -3 7 2 10 11 7 17 1 20 -8 4z"/>
<path d="M3181 4843 c-1 -13 -6 -22 -12 -20 -6 1 -13 -4 -14 -11 -2 -7 -1 -8
2 -2 2 5 9 8 14 4 11 -7 23 21 16 38 -3 7 -6 3 -6 -9z"/>
<path d="M3320 4854 c0 -13 18 -39 24 -34 2 3 -2 14 -10 24 -8 11 -14 16 -14
10z"/>
<path d="M3549 4843 c-13 -16 -12 -17 4 -4 9 7 17 15 17 17 0 8 -8 3 -21 -13z"/>
<path d="M3130 4840 c0 -5 5 -10 10 -10 6 0 10 5 10 10 0 6 -4 10 -10 10 -5 0
-10 -4 -10 -10z"/>
<path d="M3231 4840 c-9 -5 -4 -7 13 -7 29 0 32 2 13 10 -8 3 -20 2 -26 -3z"/>
<path d="M3375 4835 c-20 -16 -19 -16 2 -6 27 14 46 14 38 1 -3 -5 -1 -10 5
-10 16 0 6 24 -11 28 -8 1 -23 -5 -34 -13z"/>
<path d="M3468 4843 c7 -3 16 -2 19 1 4 3 -2 6 -13 5 -11 0 -14 -3 -6 -6z"/>
<path d="M3575 4841 c-3 -6 -3 -11 2 -12 4 -1 -3 -5 -17 -10 l-25 -8 25 2 c14
1 24 8 23 15 -4 15 13 16 20 2 3 -6 4 -5 3 2 -3 16 -23 22 -31 9z"/>
<path d="M3515 4830 c3 -5 8 -10 11 -10 2 0 4 5 4 10 0 6 -5 10 -11 10 -5 0
-7 -4 -4 -10z"/>
<path d="M3494 4815 c11 -8 24 -15 30 -15 5 0 1 7 -10 15 -10 8 -23 14 -29 14
-5 0 -1 -6 9 -14z"/>
<path d="M3610 4799 c0 -7 -9 -9 -21 -6 -15 4 -19 3 -11 -5 11 -11 52 -2 52
13 0 5 -4 9 -10 9 -5 0 -10 -5 -10 -11z"/>
<path d="M3670 4801 c0 -10 19 -25 25 -20 1 2 -3 10 -11 17 -8 7 -14 8 -14 3z"/>
<path d="M3709 4793 c12 -8 25 -12 28 -9 4 3 1 6 -6 6 -7 0 -10 4 -7 8 2 4 -5
9 -16 9 -21 2 -21 2 1 -14z"/>
<path d="M3879 4793 c-13 -16 -12 -17 4 -4 16 13 21 21 13 21 -2 0 -10 -8 -17
-17z"/>
<path d="M3754 4772 c2 -8 11 -19 22 -24 17 -9 18 -8 2 5 -12 9 -14 17 -7 24
6 6 5 10 -5 10 -7 0 -13 -7 -12 -15z"/>
<path d="M3794 4776 c1 -8 5 -18 8 -22 4 -3 5 1 4 10 -1 8 -5 18 -8 22 -4 3
-5 -1 -4 -10z"/>
<path d="M3696 4755 c4 -8 8 -15 10 -15 2 0 4 7 4 15 0 8 -4 15 -10 15 -5 0
-7 -7 -4 -15z"/>
<path d="M3660 4756 c0 -2 7 -7 16 -10 8 -3 12 -2 9 4 -6 10 -25 14 -25 6z"/>
<path d="M3831 4747 c-8 -10 -7 -14 2 -14 8 0 14 6 14 14 0 7 -1 13 -2 13 -2
0 -8 -6 -14 -13z"/>
<path d="M3305 4740 c-5 -8 42 -7 49 1 3 3 -6 5 -20 5 -14 0 -27 -3 -29 -6z"/>
<path d="M3747 4739 c7 -7 15 -10 18 -7 3 3 -2 9 -12 12 -14 6 -15 5 -6 -5z"/>
<path d="M3507 4704 c3 -7 9 -14 14 -14 14 0 10 17 -5 23 -10 4 -13 1 -9 -9z"/>
<path d="M3477 4700 c9 -10 10 -17 2 -27 -8 -9 -8 -13 -1 -13 6 0 13 4 16 8 6
10 42 9 52 -1 4 -4 14 -1 22 6 13 10 14 9 3 -10 -6 -13 -10 -23 -9 -24 2 -1
15 -2 30 -3 18 -1 35 -12 52 -34 23 -32 24 -32 22 -9 0 14 -4 23 -7 21 -4 -2
-23 14 -43 36 -20 23 -41 38 -46 35 -5 -3 -12 -1 -15 5 -5 8 -11 7 -21 -1 -11
-9 -20 -7 -41 6 -16 10 -22 12 -16 5z m124 -47 c13 -16 12 -17 -3 -4 -10 7
-18 15 -18 17 0 8 8 3 21 -13z"/>
<path d="M3840 4700 c-9 -6 -10 -10 -3 -10 6 0 15 5 18 10 8 12 4 12 -15 0z"/>
<path d="M3874 4694 c1 -8 4 -15 7 -16 2 -2 3 -1 2 1 -2 2 2 9 7 16 7 8 5 12
-4 12 -8 0 -13 -6 -12 -13z"/>
<path d="M3830 4676 c0 -2 9 -6 20 -9 11 -3 18 -1 14 4 -5 9 -34 13 -34 5z"/>
<path d="M3798 4663 c7 -3 16 -2 19 1 4 3 -2 6 -13 5 -11 0 -14 -3 -6 -6z"/>
<path d="M3855 4640 c-3 -5 -1 -10 4 -10 6 0 11 5 11 10 0 6 -2 10 -4 10 -3 0
-8 -4 -11 -10z"/>
<path d="M3920 4640 c-9 -6 -10 -10 -3 -10 6 0 15 5 18 10 8 12 4 12 -15 0z"/>
<path d="M3858 4598 c-10 -7 -10 -8 2 -7 30 3 41 -1 34 -13 -4 -7 -3 -8 4 -4
6 4 9 12 6 20 -6 15 -27 17 -46 4z"/>
<path d="M3986 4598 c3 -4 9 -8 15 -8 5 0 9 4 9 8 0 5 -7 9 -15 9 -8 0 -12 -4
-9 -9z"/>
<path d="M3949 4583 c-13 -16 -12 -17 4 -4 9 7 17 15 17 17 0 8 -8 3 -21 -13z"/>
<path d="M3630 4581 c0 -14 28 -33 39 -27 6 4 17 -6 25 -22 16 -32 41 -46 59
-35 7 4 6 -1 -2 -11 -11 -13 -16 -14 -22 -4 -4 7 -11 9 -15 6 -4 -4 7 -15 25
-25 17 -10 31 -22 31 -26 0 -5 -5 -5 -12 -1 -7 4 -8 3 -4 -4 4 -6 14 -9 24 -6
11 4 13 3 5 -3 -8 -6 -9 -14 -3 -23 6 -8 10 -13 11 -10 0 3 2 13 4 22 2 10 -8
27 -22 38 -14 11 -21 20 -15 20 12 0 10 17 -6 48 -7 12 -10 22 -8 22 11 0 -40
46 -51 46 -7 0 -10 -3 -8 -7 3 -4 -2 -10 -10 -13 -9 -3 -18 1 -21 9 -7 16 -24
21 -24 6z m91 -28 c10 -11 10 -14 2 -9 -8 4 -13 2 -13 -6 0 -10 -3 -9 -9 2 -6
8 -7 18 -5 22 7 11 10 10 25 -9z m14 -33 c-3 -5 -12 -10 -18 -10 -7 0 -6 4 3
10 19 12 23 12 15 0z"/>
<path d="M3866 4565 c-9 -26 -7 -32 5 -12 6 10 9 21 6 23 -2 3 -7 -2 -11 -11z"/>
<path d="M3915 4569 c-4 -6 -5 -12 -2 -15 2 -3 7 2 10 11 7 17 1 20 -8 4z"/>
<path d="M3890 4551 c0 -6 4 -13 10 -16 6 -3 7 1 4 9 -7 18 -14 21 -14 7z"/>
<path d="M3974 4520 c0 -13 4 -16 10 -10 7 7 7 13 0 20 -6 6 -10 3 -10 -10z"/>
<path d="M3940 4520 c-9 -6 -10 -10 -3 -10 6 0 15 5 18 10 8 12 4 12 -15 0z"/>
<path d="M3910 4511 c0 -10 19 -25 25 -20 1 2 -3 10 -11 17 -8 7 -14 8 -14 3z"/>
<path d="M3995 4490 c-4 -6 -11 -8 -16 -5 -5 4 -9 1 -9 -4 0 -16 16 -13 30 4
7 8 10 15 7 15 -3 0 -9 -5 -12 -10z"/>
<path d="M4015 4480 c-2 -3 5 -7 16 -7 10 -1 19 2 19 6 0 9 -29 10 -35 1z"/>
<path d="M3935 4460 c-3 -6 1 -7 9 -4 18 7 21 14 7 14 -6 0 -13 -4 -16 -10z"/>
<path d="M3953 4430 c-1 -11 2 -20 7 -20 4 0 7 7 6 15 -3 23 -12 26 -13 5z"/>
<path d="M3908 4433 c6 -2 18 -2 25 0 6 3 1 5 -13 5 -14 0 -19 -2 -12 -5z"/>
<path d="M3750 4400 c0 -5 4 -10 8 -10 11 0 36 -51 34 -66 -1 -7 5 -14 13 -18
10 -3 13 -2 10 5 -4 5 -1 17 7 26 11 15 11 16 -4 10 -23 -8 -33 10 -16 30 11
15 11 16 -5 10 -11 -4 -20 -1 -23 8 -7 17 -24 20 -24 5z"/>
<path d="M3914 4398 c-4 -6 -3 -8 4 -4 5 3 12 1 14 -6 2 -6 12 -12 21 -14 9
-1 15 2 11 7 -3 5 -10 7 -15 4 -5 -4 -9 1 -9 9 0 19 -16 21 -26 4z"/>
<path d="M3973 4397 c-4 -6 -1 -7 7 -2 9 6 12 4 8 -6 -4 -10 1 -15 13 -15 12
0 15 4 9 12 -6 6 -8 13 -5 16 3 2 -2 5 -10 5 -9 0 -19 -5 -22 -10z"/>
<path d="M4066 4358 c3 -5 10 -6 15 -3 13 9 11 12 -6 12 -8 0 -12 -4 -9 -9z"/>
<path d="M3948 4353 c7 -3 16 -2 19 1 4 3 -2 6 -13 5 -11 0 -14 -3 -6 -6z"/>
<path d="M3988 4331 c3 -9 1 -12 -6 -7 -6 3 -14 1 -18 -5 -4 -7 -3 -9 4 -5 5
3 12 2 14 -3 1 -5 10 1 19 13 16 20 16 22 -1 22 -11 0 -16 -5 -12 -15z"/>
<path d="M4019 4313 c-12 -16 -12 -17 2 -6 9 7 20 9 24 5 5 -4 5 -1 1 6 -9 16
-11 15 -27 -5z"/>
<path d="M3954 4289 c-3 -6 -2 -15 3 -20 5 -5 9 -1 9 11 0 23 -2 24 -12 9z"/>
<path d="M4069 4283 c-13 -16 -12 -17 4 -4 9 7 17 15 17 17 0 8 -8 3 -21 -13z"/>
<path d="M4013 4273 c0 -10 4 -10 16 -1 9 7 18 13 20 15 2 1 -5 1 -16 0 -11 0
-20 -7 -20 -14z"/>
<path d="M3964 4246 c-10 -8 -17 -16 -14 -19 3 -2 14 4 24 14 23 22 18 25 -10
5z"/>
<path d="M4013 4233 c0 -9 4 -10 14 -2 7 6 13 12 13 14 0 1 -6 2 -13 2 -8 0
-14 -6 -14 -14z"/>
<path d="M4036 4198 c3 -5 10 -6 15 -3 13 9 11 12 -6 12 -8 0 -12 -4 -9 -9z"/>
<path d="M3944 4185 c-10 -8 -15 -15 -10 -15 5 0 2 -8 -5 -17 -12 -16 -12 -17
2 -6 9 7 20 9 25 5 4 -4 2 2 -6 12 -14 18 -13 19 3 13 12 -5 16 -3 11 5 -5 8
-2 9 10 5 10 -4 15 -3 11 3 -8 14 -18 13 -41 -5z"/>
<path d="M3897 4159 c6 -23 9 -24 16 -5 3 8 0 17 -7 19 -10 4 -12 -1 -9 -14z"/>
<path d="M3955 4120 c-17 -8 -16 -8 8 -7 15 1 27 5 27 9 0 10 -9 9 -35 -2z"/>
<path d="M4054 4116 c1 -8 5 -18 8 -22 4 -3 5 1 4 10 -1 8 -5 18 -8 22 -4 3
-5 -1 -4 -10z"/>
<path d="M3986 4061 c-3 -4 6 -7 19 -7 14 0 22 2 19 5 -8 8 -34 10 -38 2z"/>
<path d="M4006 4018 c3 -5 10 -6 15 -3 13 9 11 12 -6 12 -8 0 -12 -4 -9 -9z"/>
<path d="M4006 3982 c-3 -5 1 -9 9 -9 8 0 12 4 9 9 -3 4 -7 8 -9 8 -2 0 -6 -4
-9 -8z"/>
<path d="M1110 2500 c0 -5 5 -10 11 -10 5 0 7 5 4 10 -3 6 -8 10 -11 10 -2 0
-4 -4 -4 -10z"/>
<path d="M2813 345 c0 -8 4 -12 9 -9 5 3 6 10 3 15 -9 13 -12 11 -12 -6z"/>
<path d="M2730 339 c0 -5 5 -7 10 -4 6 3 10 8 10 11 0 2 -4 4 -10 4 -5 0 -10
-5 -10 -11z"/>
<path d="M2419 313 c-13 -16 -12 -17 4 -4 16 13 21 21 13 21 -2 0 -10 -8 -17
-17z"/>
<path d="M2700 326 c0 -2 8 -10 18 -17 15 -13 16 -12 3 4 -13 16 -21 21 -21
13z"/>
<path d="M2790 320 c0 -5 5 -10 11 -10 5 0 7 5 4 10 -3 6 -8 10 -11 10 -2 0
-4 -4 -4 -10z"/>
<path d="M3370 321 c0 -6 4 -13 10 -16 6 -3 7 1 4 9 -7 18 -14 21 -14 7z"/>
<path d="M2439 293 c-13 -16 -12 -17 4 -4 16 13 21 21 13 21 -2 0 -10 -8 -17
-17z"/>
<path d="M2490 291 c0 -7 -4 -9 -10 -6 -5 3 -10 1 -10 -4 0 -6 4 -11 9 -11 13
0 25 20 17 27 -3 4 -6 1 -6 -6z"/>
<path d="M2613 285 c0 -8 4 -12 9 -9 5 3 6 10 3 15 -9 13 -12 11 -12 -6z"/>
<path d="M2656 287 c3 -10 9 -15 12 -12 3 3 0 11 -7 18 -10 9 -11 8 -5 -6z"/>
<path d="M2190 280 c0 -5 5 -10 11 -10 5 0 7 5 4 10 -3 6 -8 10 -11 10 -2 0
-4 -4 -4 -10z"/>
<path d="M2226 278 c3 -5 10 -6 15 -3 13 9 11 12 -6 12 -8 0 -12 -4 -9 -9z"/>
<path d="M2265 280 c-3 -6 1 -7 9 -4 18 7 21 14 7 14 -6 0 -13 -4 -16 -10z"/>
<path d="M2566 278 c3 -5 10 -6 15 -3 13 9 11 12 -6 12 -8 0 -12 -4 -9 -9z"/>
<path d="M2685 280 c-3 -6 1 -7 9 -4 18 7 21 14 7 14 -6 0 -13 -4 -16 -10z"/>
<path d="M2773 273 c0 -9 4 -10 14 -2 7 6 13 12 13 14 0 1 -6 2 -13 2 -8 0
-14 -6 -14 -14z"/>
<path d="M3306 278 c3 -5 10 -6 15 -3 13 9 11 12 -6 12 -8 0 -12 -4 -9 -9z"/>
<path d="M3015 261 c-3 -5 -2 -12 3 -15 5 -3 9 1 9 9 0 17 -3 19 -12 6z"/>
<path d="M2455 250 c-4 -6 -11 -8 -16 -5 -5 4 -9 1 -9 -4 0 -16 16 -13 30 4 7
8 10 15 7 15 -3 0 -9 -5 -12 -10z"/>
<path d="M2610 246 c0 -8 4 -17 9 -20 5 -4 7 3 4 14 -6 23 -13 26 -13 6z"/>
<path d="M2659 258 c-5 -18 -6 -38 -1 -34 7 8 12 36 6 36 -2 0 -4 -1 -5 -2z"/>
<path d="M2110 241 c0 -6 4 -13 10 -16 6 -3 7 1 4 9 -7 18 -14 21 -14 7z"/>
<path d="M2535 220 c3 -5 8 -10 11 -10 2 0 4 5 4 10 0 6 -5 10 -11 10 -5 0 -7
-4 -4 -10z"/>
<path d="M2447 199 c7 -7 15 -10 18 -7 3 3 -2 9 -12 12 -14 6 -15 5 -6 -5z"/>
</g>
</svg>
